inDegrees=yes
name=ik_S52_A07_T02
DataType=double
version=3
OpenSimVersion=4.3-2021-08-27-4bc7ad9
endheader
time	pelvis_tilt	pelvis_list	pelvis_rotation	pelvis_tx	pelvis_ty	pelvis_tz	hip_flexion_r	hip_adduction_r	hip_rotation_r	knee_angle_r	knee_angle_r_beta	ankle_angle_r	subtalar_angle_r	mtp_angle_r	hip_flexion_l	hip_adduction_l	hip_rotation_l	knee_angle_l	knee_angle_l_beta	ankle_angle_l	subtalar_angle_l	mtp_angle_l	lumbar_extension	lumbar_bending	lumbar_rotation	arm_flex_r	arm_add_r	arm_rot_r	elbow_flex_r	pro_sup_r	wrist_flex_r	wrist_dev_r	arm_flex_l	arm_add_l	arm_rot_l	elbow_flex_l	pro_sup_l	wrist_flex_l	wrist_dev_l
0	0	0	0	0	0.9399999999999999	0	0	0	0	0	0	0	0	0	0	0	0	0	0	0	0	0	0	0	0	0	0	0	0	89.99999999963507	0	0	0	0	0	0	89.99999999869995	0	0
0.02	-3.873662595327991	0.4805538685969512	18.57882531044947	0	0.9399999999999999	0	3.70783520929861	-1.722594163863621	-1.246313159703173	5.689535975641536	0.09930113568561269	0	0	0	3.70783520929861	-1.722594163863621	-1.246313159703173	5.689535975641536	0.09930113568561269	0	0	0	-1.51852288418615	-2.250762940145236	1.932472303659728	22.11035687843044	-10.02160663085457	-15.77844104959518	43.95696170406555	147.2362636477325	0	0	23.17053496531589	-8.897761788997443	-14.87955183626716	47.10802938766294	121.988577023796	0	0
0.04	-3.878940554285844	0.4668146952598027	18.53768924089788	0	0.9399999999999999	0	3.712771330512818	-1.725104114720138	-1.248002038754093	5.695987494399706	0.09941373592969693	0	0	0	3.712771330512818	-1.725104114720138	-1.248002038754093	5.695987494399706	0.09941373592969693	0	0	0	-1.527915844156206	-2.261521918281415	1.918275693147609	22.07507798668435	-10.07102714281343	-15.78681719198369	43.98296155334486	147.2311331196303	0	0	23.17541033875655	-8.939377255478338	-14.916992673503	47.11397762770174	121.986571693448	0	0
0.06	-3.855192690016449	0.466220341384181	18.48524823683297	0	0.9399999999999999	0	3.729884728780603	-1.733768471345704	-1.253851745347526	5.718358896012645	0.0998041905461287	0	0	0	3.729884728780603	-1.733768471345704	-1.253851745347526	5.718358896012645	0.0998041905461287	0	0	0	-1.506415021959411	-2.269929339333081	1.955250935865333	21.84639434595312	-10.14079961899563	-15.75714421263361	44.23925781406392	146.570591682755	0	0	23.09093910048594	-8.966325805632463	-14.91567975906747	47.14047837749462	121.9721193949549	0	0
0.08	-3.890314312428489	0.4202101325117646	18.4501258027789	0	0.9399999999999999	0	3.746097794629391	-1.742049180943647	-1.259406571757617	5.739498985982784	0.1001731547202755	0	0	0	3.746097794629391	-1.742049180943647	-1.259406571757617	5.739498985982784	0.1001731547202755	0	0	0	-1.554824620335432	-2.301993127301097	1.969959118152508	21.72383790387977	-10.14426580508973	-15.89103690887271	44.49422311370354	146.5747593676437	0	0	23.1908495401837	-9.043956045815518	-14.88270647763806	47.16157232518994	121.9440426686109	0	0
0.1	-3.931884419958581	0.3998171954495149	18.36859764127968	0	0.9399999999999999	0	3.7774450442693	-1.758065989436062	-1.270149992423677	5.780314643701411	0.1008855223338325	0	0	0	3.7774450442693	-1.758065989436062	-1.270149992423677	5.780314643701411	0.1008855223338325	0	0	0	-1.60214131942217	-2.308003767564585	2.034163889067406	21.60562689620134	-10.19160332324997	-16.11859356131002	44.98654943538315	145.4824647351734	0	0	23.28782410927105	-9.050390429943414	-14.89519399618219	47.15315705950042	121.9253252359708	0	0
0.12	-3.99432472980869	0.3571823117670471	18.32666364975822	0	0.9399999999999999	0	3.790344484388036	-1.76464419422716	-1.274569607866272	5.797096338365272	0.1011784181597813	1.077613842297402e-35	0	0	3.790344484388036	-1.76464419422716	-1.274569607866272	5.797096338365272	0.1011784181597813	1.077613842297402e-35	0	0	-1.675323961815675	-2.3286723509764	2.055899279179168	21.61484300071401	-10.21857615861376	-16.28929120192084	45.17916884880431	145.1816965004345	0	0	23.4191389621629	-9.110547909411672	-14.87155470677773	47.18402141092827	121.9203964893254	0	0
0.14	-3.952920250323177	0.3777884672446444	18.25833891267081	0	0.9399999999999999	0	3.806610621115609	-1.772888060907936	-1.280134677687095	5.818267709961949	0.1015479283013065	0	0	0	3.806610621115609	-1.772888060907936	-1.280134677687095	5.818267709961949	0.1015479283013065	0	0	0	-1.629942248293541	-2.321829513501976	2.068942449318138	21.35915008713958	-10.35138277751899	-16.22874600432571	45.46097949410319	144.8581430567922	0	0	23.31522180765839	-9.114774341646148	-14.92831139121988	47.15315445190196	121.899607746374	0	0
0.16	-3.932902501001532	0.3837547645994588	18.26464621033971	0	0.9399999999999999	0	3.822203893218416	-1.780796110118931	-1.285471179699394	5.838542260059111	0.1019017859548625	0	0	0	3.822203893218416	-1.780796110118931	-1.285471179699394	5.838542260059111	0.1019017859548625	0	0	0	-1.609495568795644	-2.321292202486906	2.057690877757198	21.11882177760538	-10.48776550782582	-16.1192515879434	45.76921366667576	144.5899105272678	0	0	23.19950343599695	-9.122979714983609	-14.95413272819194	47.22878652898588	121.8992488432366	0	0
0.18	-3.9561897178312	0.3684736164938038	18.23697421887312	0	0.9399999999999999	0	3.850118878058828	-1.795030962350977	-1.295039902257932	5.874751224949109	0.102533751610932	0	0	0	3.850118878058828	-1.795030962350977	-1.295039902257932	5.874751224949109	0.102533751610932	0	0	0	-1.637150119141429	-2.327260028324137	2.061826822122478	20.96717150170806	-10.57994922232054	-16.03560229357383	46.04865536921454	144.3857276959076	0	0	23.22991522375804	-9.131060541970815	-14.90143871227879	47.27197701029987	121.8617517077193	0	0
